<?xml version="1.0" standalone="no"?>
<!DOCTYPE svg PUBLIC "-//W3C//DTD SVG 20010904//EN"
 "http://www.w3.org/TR/2001/REC-SVG-20010904/DTD/svg10.dtd">
<svg version="1.0" xmlns="http://www.w3.org/2000/svg"
 width="300.000000pt" height="300.000000pt" viewBox="0 0 300.000000 300.000000"
 preserveAspectRatio="xMidYMid meet">
<metadata>
Created by potrace 1.10, written by Peter Selinger 2001-2011
</metadata>
<g transform="translate(0.000000,300.000000) scale(0.100000,-0.100000)"
fill="#000000" stroke="none">
<path d="M1762 2091 c-77 -50 -281 -232 -510 -455 -260 -253 -358 -342 -446
-408 -136 -101 -180 -116 -230 -77 -15 12 -30 18 -34 15 -10 -11 15 -133 36
-174 10 -20 34 -47 52 -60 110 -75 286 46 660 453 155 169 366 388 383 397 10
5 21 7 24 4 8 -7 -49 -147 -125 -306 -183 -386 -210 -469 -161 -504 44 -31 81
-21 171 46 71 52 241 193 352 290 17 15 41 27 54 28 21 0 23 -3 17 -32 -4 -18
-22 -82 -41 -143 -47 -156 -51 -184 -24 -217 25 -33 86 -51 138 -42 45 8 103
36 122 59 12 15 10 20 -18 42 -19 14 -32 34 -32 46 0 12 22 114 50 227 54 224
59 267 32 300 -22 27 -86 37 -129 18 -18 -7 -122 -92 -230 -188 -194 -173
-263 -230 -276 -230 -23 0 11 66 159 310 204 336 248 424 248 494 0 59 -20 96
-69 126 -52 32 -102 26 -173 -19z m167 -30 c26 -25 31 -36 31 -78 0 -66 -32
-130 -227 -454 -88 -146 -165 -280 -171 -297 -9 -26 -8 -35 9 -57 28 -35 49
-32 111 17 41 32 202 172 228 198 3 3 39 35 80 71 85 75 136 109 164 109 26 0
56 -29 56 -53 0 -12 -22 -116 -50 -233 -27 -117 -50 -218 -50 -224 0 -7 7 -28
16 -47 22 -46 10 -56 -69 -61 -109 -7 -113 19 -42 242 14 43 25 93 25 111 0
41 -39 80 -72 72 -13 -4 -82 -55 -152 -114 -174 -147 -285 -232 -323 -251 -38
-18 -63 -5 -63 34 0 25 71 193 167 394 68 141 133 300 133 323 0 8 -8 25 -18
37 -37 46 -63 26 -302 -230 -345 -369 -430 -455 -526 -530 -92 -72 -174 -101
-220 -78 -30 14 -58 55 -69 101 -7 25 -5 27 26 27 50 0 123 38 224 117 84 65
156 133 530 493 166 160 335 308 406 356 65 43 105 45 148 5z"/>
</g>
</svg>
